<?xml version="1.0" encoding="UTF-8" standalone="no"?>
<!DOCTYPE svg PUBLIC "-//W3C//DTD SVG 1.1//EN"
 "http://www.w3.org/Graphics/SVG/1.1/DTD/svg11.dtd">
<!-- Generated by graphviz version 2.40.1 (20161225.0304)
 -->
<!-- Title: G Pages: 1 -->
<svg width="655pt" height="855pt"
 viewBox="0.00 0.00 655.36 854.84" xmlns="http://www.w3.org/2000/svg" xmlns:xlink="http://www.w3.org/1999/xlink">
<g id="graph0" class="graph" transform="scale(1 1) rotate(0) translate(4 850.8448)">
<title>G</title><style>.edge>path:hover{stroke-width:8}</style>
<polygon fill="#ffffff" stroke="transparent" points="-4,4 -4,-850.8448 651.3619,-850.8448 651.3619,4 -4,4"/>
<!-- src_visualization_grid_viz -->
<g id="node1" class="node">
<title>src_visualization_grid_viz</title><style>.edge>path:hover{stroke-width:8}</style>
<ellipse fill="#a44646" stroke="#000000" cx="149.8198" cy="-629.8879" rx="52.1524" ry="28.9828"/>
<text text-anchor="middle" x="149.8198" y="-638.3879" font-family="Helvetica,sans-Serif" font-size="10.00" fill="#ffffff">src.</text>
<text text-anchor="middle" x="149.8198" y="-627.3879" font-family="Helvetica,sans-Serif" font-size="10.00" fill="#ffffff">visualization.</text>
<text text-anchor="middle" x="149.8198" y="-616.3879" font-family="Helvetica,sans-Serif" font-size="10.00" fill="#ffffff">grid_viz</text>
</g>
<!-- src_visualization_helpers -->
<g id="node14" class="node">
<title>src_visualization_helpers</title><style>.edge>path:hover{stroke-width:8}</style>
<ellipse fill="#a13535" stroke="#000000" cx="229.8198" cy="-535.9052" rx="52.1524" ry="28.9828"/>
<text text-anchor="middle" x="229.8198" y="-544.4052" font-family="Helvetica,sans-Serif" font-size="10.00" fill="#ffffff">src.</text>
<text text-anchor="middle" x="229.8198" y="-533.4052" font-family="Helvetica,sans-Serif" font-size="10.00" fill="#ffffff">visualization.</text>
<text text-anchor="middle" x="229.8198" y="-522.4052" font-family="Helvetica,sans-Serif" font-size="10.00" fill="#ffffff">helpers</text>
</g>
<!-- src_visualization_grid_viz&#45;&gt;src_visualization_helpers -->
<g id="edge30" class="edge">
<title>src_visualization_grid_viz&#45;&gt;src_visualization_helpers</title><style>.edge>path:hover{stroke-width:8}</style>
<path fill="none" stroke="#000000" d="M172.3172,-603.4584C181.168,-593.0605 191.4431,-580.9896 200.8384,-569.952"/>
<polygon fill="#a44646" stroke="#000000" points="203.6746,-572.0198 207.4913,-562.1363 198.3442,-567.4825 203.6746,-572.0198"/>
</g>
<!-- src_data -->
<g id="node2" class="node">
<title>src_data</title><style>.edge>path:hover{stroke-width:8}</style>
<ellipse fill="#f31616" stroke="#000000" cx="128.8198" cy="-535.9052" rx="30.7213" ry="18"/>
<text text-anchor="middle" x="128.8198" y="-533.4052" font-family="Helvetica,sans-Serif" font-size="10.00" fill="#ffffff">src.data</text>
</g>
<!-- src_utils_places_to_cells -->
<g id="node8" class="node">
<title>src_utils_places_to_cells</title><style>.edge>path:hover{stroke-width:8}</style>
<ellipse fill="#964040" stroke="#000000" cx="481.8198" cy="-159.9741" rx="59.2941" ry="28.9828"/>
<text text-anchor="middle" x="481.8198" y="-168.4741" font-family="Helvetica,sans-Serif" font-size="10.00" fill="#ffffff">src.</text>
<text text-anchor="middle" x="481.8198" y="-157.4741" font-family="Helvetica,sans-Serif" font-size="10.00" fill="#ffffff">utils.</text>
<text text-anchor="middle" x="481.8198" y="-146.4741" font-family="Helvetica,sans-Serif" font-size="10.00" fill="#ffffff">places_to_cells</text>
</g>
<!-- src_data&#45;&gt;src_utils_places_to_cells -->
<g id="edge2" class="edge">
<title>src_data&#45;&gt;src_utils_places_to_cells</title><style>.edge>path:hover{stroke-width:8}</style>
<path fill="none" stroke="#000000" d="M227.8198,-441.9224C237.4821,-428.268 240.3014,-425.0607 251.8198,-412.931 269.7961,-394.0007 414.2767,-277.8388 424.8198,-253.9569"/>
<path fill="none" stroke="#000000" d="M424.8198,-253.9569C432.9132,-233.7416 445.1165,-212.8749 456.1578,-195.9541"/>
<polygon fill="#f31616" stroke="#000000" points="459.1654,-197.7522 461.7978,-187.4896 453.3401,-193.8707 459.1654,-197.7522"/>
</g>
<!-- src_utils_geometry -->
<g id="node15" class="node">
<title>src_utils_geometry</title><style>.edge>path:hover{stroke-width:8}</style>
<ellipse fill="#964040" stroke="#000000" cx="235.8198" cy="-347.9396" rx="40.1111" ry="28.9828"/>
<text text-anchor="middle" x="235.8198" y="-356.4396" font-family="Helvetica,sans-Serif" font-size="10.00" fill="#ffffff">src.</text>
<text text-anchor="middle" x="235.8198" y="-345.4396" font-family="Helvetica,sans-Serif" font-size="10.00" fill="#ffffff">utils.</text>
<text text-anchor="middle" x="235.8198" y="-334.4396" font-family="Helvetica,sans-Serif" font-size="10.00" fill="#ffffff">geometry</text>
</g>
<!-- src_data&#45;&gt;src_utils_geometry -->
<g id="edge1" class="edge">
<title>src_data&#45;&gt;src_utils_geometry</title><style>.edge>path:hover{stroke-width:8}</style>
<path fill="none" stroke="#000000" d="M147.8403,-521.5429C168.1842,-505.9924 198.8672,-481.9383 208.8198,-470.9138 219.1431,-459.4786 218.921,-454.4979 227.8198,-441.9224"/>
<path fill="none" stroke="#000000" d="M227.8198,-441.9224C238.9416,-426.2055 241.5347,-405.1004 241.0873,-386.8721"/>
<polygon fill="#f31616" stroke="#000000" points="244.5782,-386.609 240.5377,-376.815 237.5887,-386.9911 244.5782,-386.609"/>
</g>
<!-- src_data_cells_results -->
<g id="node3" class="node">
<title>src_data_cells_results</title><style>.edge>path:hover{stroke-width:8}</style>
<ellipse fill="#774040" stroke="#000000" cx="481.8198" cy="-28.9914" rx="50.41" ry="28.9828"/>
<text text-anchor="middle" x="481.8198" y="-37.4914" font-family="Helvetica,sans-Serif" font-size="10.00" fill="#ffffff">src.</text>
<text text-anchor="middle" x="481.8198" y="-26.4914" font-family="Helvetica,sans-Serif" font-size="10.00" fill="#ffffff">data.</text>
<text text-anchor="middle" x="481.8198" y="-15.4914" font-family="Helvetica,sans-Serif" font-size="10.00" fill="#ffffff">cells_results</text>
</g>
<!-- src_data_process -->
<g id="node4" class="node">
<title>src_data_process</title><style>.edge>path:hover{stroke-width:8}</style>
<ellipse fill="#9d4343" stroke="#000000" cx="405.8198" cy="-441.9224" rx="36.125" ry="28.9828"/>
<text text-anchor="middle" x="405.8198" y="-450.4224" font-family="Helvetica,sans-Serif" font-size="10.00" fill="#ffffff">src.</text>
<text text-anchor="middle" x="405.8198" y="-439.4224" font-family="Helvetica,sans-Serif" font-size="10.00" fill="#ffffff">data.</text>
<text text-anchor="middle" x="405.8198" y="-428.4224" font-family="Helvetica,sans-Serif" font-size="10.00" fill="#ffffff">process</text>
</g>
<!-- src_data_user_agg -->
<g id="node13" class="node">
<title>src_data_user_agg</title><style>.edge>path:hover{stroke-width:8}</style>
<ellipse fill="#ac2b2b" stroke="#000000" cx="409.8198" cy="-347.9396" rx="39.6962" ry="28.9828"/>
<text text-anchor="middle" x="409.8198" y="-356.4396" font-family="Helvetica,sans-Serif" font-size="10.00" fill="#ffffff">src.</text>
<text text-anchor="middle" x="409.8198" y="-345.4396" font-family="Helvetica,sans-Serif" font-size="10.00" fill="#ffffff">data.</text>
<text text-anchor="middle" x="409.8198" y="-334.4396" font-family="Helvetica,sans-Serif" font-size="10.00" fill="#ffffff">user_agg</text>
</g>
<!-- src_data_process&#45;&gt;src_data_user_agg -->
<g id="edge7" class="edge">
<title>src_data_process&#45;&gt;src_data_user_agg</title><style>.edge>path:hover{stroke-width:8}</style>
<path fill="none" stroke="#000000" d="M407.0635,-412.7008C407.4059,-404.6561 407.783,-395.7964 408.1454,-387.2812"/>
<polygon fill="#9d4343" stroke="#000000" points="411.6484,-387.2829 408.5769,-377.1431 404.6547,-386.9852 411.6484,-387.2829"/>
</g>
<!-- src_data_access -->
<g id="node5" class="node">
<title>src_data_access</title><style>.edge>path:hover{stroke-width:8}</style>
<ellipse fill="#db2f2f" stroke="#000000" cx="574.8198" cy="-535.9052" rx="33.8824" ry="28.9828"/>
<text text-anchor="middle" x="574.8198" y="-544.4052" font-family="Helvetica,sans-Serif" font-size="10.00" fill="#ffffff">src.</text>
<text text-anchor="middle" x="574.8198" y="-533.4052" font-family="Helvetica,sans-Serif" font-size="10.00" fill="#ffffff">data.</text>
<text text-anchor="middle" x="574.8198" y="-522.4052" font-family="Helvetica,sans-Serif" font-size="10.00" fill="#ffffff">access</text>
</g>
<!-- src_data_access&#45;&gt;src_data_cells_results -->
<g id="edge3" class="edge">
<title>src_data_access&#45;&gt;src_data_cells_results</title><style>.edge>path:hover{stroke-width:8}</style>
<path fill="none" stroke="#000000" d="M587.8198,-347.9396C588.2992,-302.8869 629.5626,-298.8564 625.8198,-253.9569"/>
<path fill="none" stroke="#000000" d="M625.8198,-253.9569C622.1041,-209.3818 603.921,-202.4229 589.8198,-159.9741"/>
</g>
<!-- src_data_access&#45;&gt;src_data_process -->
<g id="edge4" class="edge">
<title>src_data_access&#45;&gt;src_data_process</title><style>.edge>path:hover{stroke-width:8}</style>
<path fill="none" stroke="#000000" d="M548.4384,-517.0665C543.0467,-513.518 537.3334,-509.9669 531.8198,-506.9138 497.3556,-487.8292 485.4814,-489.6374 450.8198,-470.9138 447.9579,-469.3679 445.0375,-467.7027 442.1279,-465.9799"/>
<polygon fill="#db2f2f" stroke="#000000" points="443.8579,-462.9352 433.5016,-460.6998 440.2035,-468.9056 443.8579,-462.9352"/>
</g>
<!-- src_data_user_filters -->
<g id="node11" class="node">
<title>src_data_user_filters</title><style>.edge>path:hover{stroke-width:8}</style>
<ellipse fill="#854747" stroke="#000000" cx="551.8198" cy="-253.9569" rx="45.9239" ry="28.9828"/>
<text text-anchor="middle" x="551.8198" y="-262.4569" font-family="Helvetica,sans-Serif" font-size="10.00" fill="#ffffff">src.</text>
<text text-anchor="middle" x="551.8198" y="-251.4569" font-family="Helvetica,sans-Serif" font-size="10.00" fill="#ffffff">data.</text>
<text text-anchor="middle" x="551.8198" y="-240.4569" font-family="Helvetica,sans-Serif" font-size="10.00" fill="#ffffff">user_filters</text>
</g>
<!-- src_data_access&#45;&gt;src_data_user_filters -->
<g id="edge5" class="edge">
<title>src_data_access&#45;&gt;src_data_user_filters</title><style>.edge>path:hover{stroke-width:8}</style>
<path fill="none" stroke="#000000" d="M580.0468,-507.2073C581.8873,-495.9325 583.76,-482.8536 584.8198,-470.9138 589.6535,-416.4565 592.134,-402.4406 587.8198,-347.9396"/>
<path fill="none" stroke="#000000" d="M587.8198,-347.9396C588.0316,-328.0385 580.9277,-307.2408 572.9764,-290.2843"/>
<polygon fill="#db2f2f" stroke="#000000" points="576.0932,-288.6914 568.5129,-281.2894 569.8228,-291.8029 576.0932,-288.6914"/>
</g>
<!-- src_data_access&#45;&gt;src_utils_geometry -->
<g id="edge6" class="edge">
<title>src_data_access&#45;&gt;src_utils_geometry</title><style>.edge>path:hover{stroke-width:8}</style>
<path fill="none" stroke="#000000" d="M549.4259,-516.2669C543.8614,-512.6976 537.8304,-509.342 531.8198,-506.9138 446.4552,-472.4272 406.2334,-519.1606 327.8198,-470.9138 318.5562,-465.214 283.7252,-416.82 259.683,-382.4731"/>
<polygon fill="#db2f2f" stroke="#000000" points="262.4179,-380.2761 253.8252,-374.078 256.6773,-384.2818 262.4179,-380.2761"/>
</g>
<!-- src_visualization -->
<g id="node6" class="node">
<title>src_visualization</title><style>.edge>path:hover{stroke-width:8}</style>
<ellipse fill="#ce3b3b" stroke="#000000" cx="350.8198" cy="-535.9052" rx="50.41" ry="21.4286"/>
<text text-anchor="middle" x="350.8198" y="-538.9052" font-family="Helvetica,sans-Serif" font-size="10.00" fill="#ffffff">src.</text>
<text text-anchor="middle" x="350.8198" y="-527.9052" font-family="Helvetica,sans-Serif" font-size="10.00" fill="#ffffff">visualization</text>
</g>
<!-- src_data_metrics -->
<g id="node12" class="node">
<title>src_data_metrics</title><style>.edge>path:hover{stroke-width:8}</style>
<ellipse fill="#8b4b4b" stroke="#000000" cx="327.8198" cy="-159.9741" rx="34.7971" ry="28.9828"/>
<text text-anchor="middle" x="327.8198" y="-168.4741" font-family="Helvetica,sans-Serif" font-size="10.00" fill="#ffffff">src.</text>
<text text-anchor="middle" x="327.8198" y="-157.4741" font-family="Helvetica,sans-Serif" font-size="10.00" fill="#ffffff">data.</text>
<text text-anchor="middle" x="327.8198" y="-146.4741" font-family="Helvetica,sans-Serif" font-size="10.00" fill="#ffffff">metrics</text>
</g>
<!-- src_visualization&#45;&gt;src_data_metrics -->
<g id="edge28" class="edge">
<title>src_visualization&#45;&gt;src_data_metrics</title><style>.edge>path:hover{stroke-width:8}</style>
<path fill="none" stroke="#000000" d="M346.093,-514.5885C342.5021,-495.5131 338.6726,-466.8025 341.8198,-441.9224"/>
<path fill="none" stroke="#000000" d="M341.8198,-441.9224C347.0617,-400.4825 333.8443,-388.9413 341.8198,-347.9396"/>
</g>
<!-- src_visualization&#45;&gt;src_data_user_agg -->
<g id="edge29" class="edge">
<title>src_visualization&#45;&gt;src_data_user_agg</title><style>.edge>path:hover{stroke-width:8}</style>
<path fill="none" stroke="#000000" d="M341.8198,-441.9224C344.9539,-417.1453 361.0078,-394.3196 376.7292,-377.3687"/>
<polygon fill="#ce3b3b" stroke="#000000" points="379.4229,-379.6189 383.8815,-370.0079 374.4025,-374.7407 379.4229,-379.6189"/>
</g>
<!-- src_utils_my_exceptions -->
<g id="node7" class="node">
<title>src_utils_my_exceptions</title><style>.edge>path:hover{stroke-width:8}</style>
<ellipse fill="#b65353" stroke="#000000" cx="470.8198" cy="-723.8707" rx="58.8803" ry="28.9828"/>
<text text-anchor="middle" x="470.8198" y="-732.3707" font-family="Helvetica,sans-Serif" font-size="10.00" fill="#ffffff">src.</text>
<text text-anchor="middle" x="470.8198" y="-721.3707" font-family="Helvetica,sans-Serif" font-size="10.00" fill="#ffffff">utils.</text>
<text text-anchor="middle" x="470.8198" y="-710.3707" font-family="Helvetica,sans-Serif" font-size="10.00" fill="#ffffff">my_exceptions</text>
</g>
<!-- src_data_text_process -->
<g id="node10" class="node">
<title>src_data_text_process</title><style>.edge>path:hover{stroke-width:8}</style>
<ellipse fill="#a44646" stroke="#000000" cx="470.8198" cy="-535.9052" rx="51.7379" ry="28.9828"/>
<text text-anchor="middle" x="470.8198" y="-544.4052" font-family="Helvetica,sans-Serif" font-size="10.00" fill="#ffffff">src.</text>
<text text-anchor="middle" x="470.8198" y="-533.4052" font-family="Helvetica,sans-Serif" font-size="10.00" fill="#ffffff">data.</text>
<text text-anchor="middle" x="470.8198" y="-522.4052" font-family="Helvetica,sans-Serif" font-size="10.00" fill="#ffffff">text_process</text>
</g>
<!-- src_utils_my_exceptions&#45;&gt;src_data_text_process -->
<g id="edge24" class="edge">
<title>src_utils_my_exceptions&#45;&gt;src_data_text_process</title><style>.edge>path:hover{stroke-width:8}</style>
<path fill="none" stroke="#000000" d="M470.8198,-694.5011C470.8198,-662.3613 470.8198,-610.6819 470.8198,-575.1006"/>
<polygon fill="#b65353" stroke="#000000" points="474.3199,-575.0685 470.8198,-565.0685 467.3199,-575.0686 474.3199,-575.0685"/>
</g>
<!-- src_utils_places_to_cells&#45;&gt;src_data_cells_results -->
<g id="edge25" class="edge">
<title>src_utils_places_to_cells&#45;&gt;src_data_cells_results</title><style>.edge>path:hover{stroke-width:8}</style>
<path fill="none" stroke="#000000" d="M478.1134,-131.0376C477.5745,-119.4346 478.1728,-106.0892 481.8198,-94.4828"/>
</g>
<!-- src_utils_scales -->
<g id="node9" class="node">
<title>src_utils_scales</title><style>.edge>path:hover{stroke-width:8}</style>
<ellipse fill="#c24747" stroke="#000000" cx="31.8198" cy="-817.8534" rx="31.6406" ry="28.9828"/>
<text text-anchor="middle" x="31.8198" y="-826.3534" font-family="Helvetica,sans-Serif" font-size="10.00" fill="#ffffff">src.</text>
<text text-anchor="middle" x="31.8198" y="-815.3534" font-family="Helvetica,sans-Serif" font-size="10.00" fill="#ffffff">utils.</text>
<text text-anchor="middle" x="31.8198" y="-804.3534" font-family="Helvetica,sans-Serif" font-size="10.00" fill="#ffffff">scales</text>
</g>
<!-- src_utils_scales&#45;&gt;src_visualization_grid_viz -->
<g id="edge26" class="edge">
<title>src_utils_scales&#45;&gt;src_visualization_grid_viz</title><style>.edge>path:hover{stroke-width:8}</style>
<path fill="none" stroke="#000000" d="M31.8198,-723.8707C41.1932,-691.3099 71.2297,-667.6565 98.6503,-652.2234"/>
<polygon fill="#c24747" stroke="#000000" points="100.66,-655.1171 107.8155,-647.3037 97.3493,-648.9494 100.66,-655.1171"/>
</g>
<!-- src_utils_scales&#45;&gt;src_visualization_helpers -->
<g id="edge27" class="edge">
<title>src_utils_scales&#45;&gt;src_visualization_helpers</title><style>.edge>path:hover{stroke-width:8}</style>
<path fill="none" stroke="#000000" d="M27.7358,-788.8997C26.0594,-770.0164 25.7262,-745.0382 31.8198,-723.8707"/>
<path fill="none" stroke="#000000" d="M31.8198,-723.8707C48.4849,-665.9808 45.9856,-643.2545 88.8198,-600.8965 116.5434,-573.4812 133.4327,-581.2657 168.8198,-564.8965 172.8189,-563.0467 176.9583,-561.1152 181.1107,-559.1659"/>
<polygon fill="#c24747" stroke="#000000" points="182.6188,-562.3245 190.1723,-554.895 179.6344,-555.9925 182.6188,-562.3245"/>
</g>
<!-- src_data_text_process&#45;&gt;src_data_process -->
<g id="edge8" class="edge">
<title>src_data_text_process&#45;&gt;src_data_process</title><style>.edge>path:hover{stroke-width:8}</style>
<path fill="none" stroke="#000000" d="M452.0191,-508.7215C444.9187,-498.455 436.7504,-486.6446 429.2756,-475.8369"/>
<polygon fill="#a44646" stroke="#000000" points="432.0302,-473.6666 423.4633,-467.433 426.273,-477.6485 432.0302,-473.6666"/>
</g>
<!-- src_data_user_agg&#45;&gt;src_data_cells_results -->
<g id="edge9" class="edge">
<title>src_data_user_agg&#45;&gt;src_data_cells_results</title><style>.edge>path:hover{stroke-width:8}</style>
<path fill="none" stroke="#000000" d="M428.8113,-322.1743C442.5784,-303.3806 461.555,-277.234 477.8198,-253.9569"/>
<path fill="none" stroke="#000000" d="M477.8198,-253.9569C486.6437,-241.3287 486.0167,-235.9485 496.8198,-224.9655 516.7881,-204.6645 526.511,-205.3229 549.8198,-188.9655 567.792,-176.3531 596.7416,-180.8107 589.8198,-159.9741"/>
<path fill="none" stroke="#000000" d="M589.8198,-159.9741C582.898,-139.1376 568.4235,-142.6436 549.8198,-130.9828 520.7564,-112.7657 471.5374,-127.2061 481.8198,-94.4828"/>
</g>
<!-- src_data_user_agg&#45;&gt;src_utils_places_to_cells -->
<g id="edge11" class="edge">
<title>src_data_user_agg&#45;&gt;src_utils_places_to_cells</title><style>.edge>path:hover{stroke-width:8}</style>
<path fill="none" stroke="#000000" d="M410.6353,-318.8988C412.0783,-299.7536 415.7445,-274.514 424.8198,-253.9569"/>
</g>
<!-- src_data_user_agg&#45;&gt;src_data_user_filters -->
<g id="edge10" class="edge">
<title>src_data_user_agg&#45;&gt;src_data_user_filters</title><style>.edge>path:hover{stroke-width:8}</style>
<path fill="none" stroke="#000000" d="M439.2423,-328.4664C460.1319,-314.6405 488.4357,-295.9077 511.4368,-280.6844"/>
<polygon fill="#ac2b2b" stroke="#000000" points="513.5588,-283.4772 519.9661,-275.0393 509.6953,-277.6399 513.5588,-283.4772"/>
</g>
<!-- src_visualization_helpers&#45;&gt;src_data_metrics -->
<g id="edge31" class="edge">
<title>src_visualization_helpers&#45;&gt;src_data_metrics</title><style>.edge>path:hover{stroke-width:8}</style>
<path fill="none" stroke="#000000" d="M236.8503,-506.9641C242.5377,-487.391 251.9124,-461.6195 265.8198,-441.9224"/>
<path fill="none" stroke="#000000" d="M265.8198,-441.9224C296.8037,-398.0398 331.563,-400.6699 341.8198,-347.9396"/>
<path fill="none" stroke="#000000" d="M341.8198,-347.9396C349.7953,-306.938 334.2267,-295.031 341.8198,-253.9569"/>
</g>
<!-- src_visualization_helpers&#45;&gt;src_data_user_agg -->
<g id="edge32" class="edge">
<title>src_visualization_helpers&#45;&gt;src_data_user_agg</title><style>.edge>path:hover{stroke-width:8}</style>
<path fill="none" stroke="#000000" d="M265.8198,-441.9224C279.4493,-422.6189 331.2891,-391.2498 368.8691,-370.1194"/>
<polygon fill="#a13535" stroke="#000000" points="370.5771,-373.1745 377.6054,-365.2464 367.1671,-367.0612 370.5771,-373.1745"/>
</g>
<!-- src_utils_geometry&#45;&gt;src_data_metrics -->
<g id="edge18" class="edge">
<title>src_utils_geometry&#45;&gt;src_data_metrics</title><style>.edge>path:hover{stroke-width:8}</style>
<path fill="none" stroke="#000000" d="M265.355,-328.1269C295.423,-306.9826 338.1425,-273.8488 341.8198,-253.9569"/>
<path fill="none" stroke="#000000" d="M341.8198,-253.9569C345.1972,-235.6873 342.8932,-215.3026 339.2531,-198.1999"/>
<polygon fill="#964040" stroke="#000000" points="342.5551,-196.9528 336.8528,-188.0234 335.742,-198.5598 342.5551,-196.9528"/>
</g>
<!-- src_utils_make_config -->
<g id="node16" class="node">
<title>src_utils_make_config</title><style>.edge>path:hover{stroke-width:8}</style>
<ellipse fill="#c24747" stroke="#000000" cx="148.8198" cy="-441.9224" rx="50.8235" ry="28.9828"/>
<text text-anchor="middle" x="148.8198" y="-450.4224" font-family="Helvetica,sans-Serif" font-size="10.00" fill="#ffffff">src.</text>
<text text-anchor="middle" x="148.8198" y="-439.4224" font-family="Helvetica,sans-Serif" font-size="10.00" fill="#ffffff">utils.</text>
<text text-anchor="middle" x="148.8198" y="-428.4224" font-family="Helvetica,sans-Serif" font-size="10.00" fill="#ffffff">make_config</text>
</g>
<!-- src_utils_make_config&#45;&gt;src_data_cells_results -->
<g id="edge22" class="edge">
<title>src_utils_make_config&#45;&gt;src_data_cells_results</title><style>.edge>path:hover{stroke-width:8}</style>
<path fill="none" stroke="#000000" d="M151.9296,-412.9205C160.3618,-349.9478 189.7679,-200.7666 283.8198,-130.9828 355.682,-77.6631 454.9954,-179.8503 481.8198,-94.4828"/>
<path fill="none" stroke="#000000" d="M481.8198,-94.4828C484.1183,-86.1307 485.0487,-76.9493 485.2217,-68.172"/>
<polygon fill="#c24747" stroke="#000000" points="488.7211,-68.0894 485.1135,-58.1277 481.7215,-68.1649 488.7211,-68.0894"/>
</g>
<!-- src_utils_make_config&#45;&gt;src_utils_geometry -->
<g id="edge23" class="edge">
<title>src_utils_make_config&#45;&gt;src_utils_geometry</title><style>.edge>path:hover{stroke-width:8}</style>
<path fill="none" stroke="#000000" d="M172.5929,-416.2412C182.9931,-405.0063 195.3019,-391.7095 206.2828,-379.8473"/>
<polygon fill="#c24747" stroke="#000000" points="209.0489,-382.0114 213.2737,-372.2953 203.912,-377.2562 209.0489,-382.0114"/>
</g>
<!-- src_utils -->
<g id="node17" class="node">
<title>src_utils</title><style>.edge>path:hover{stroke-width:8}</style>
<ellipse fill="#f91010" stroke="#000000" cx="435.8198" cy="-817.8534" rx="30.0436" ry="18"/>
<text text-anchor="middle" x="435.8198" y="-815.3534" font-family="Helvetica,sans-Serif" font-size="10.00" fill="#ffffff">src.utils</text>
</g>
<!-- src_utils&#45;&gt;src_visualization_grid_viz -->
<g id="edge16" class="edge">
<title>src_utils&#45;&gt;src_visualization_grid_viz</title><style>.edge>path:hover{stroke-width:8}</style>
<path fill="none" stroke="#000000" d="M189.8198,-723.8707C174.447,-709.0631 164.6874,-687.4031 158.661,-668.6079"/>
<polygon fill="#f91010" stroke="#000000" points="161.9551,-667.4048 155.7626,-658.8082 155.2425,-669.3902 161.9551,-667.4048"/>
</g>
<!-- src_utils&#45;&gt;src_data_cells_results -->
<g id="edge12" class="edge">
<title>src_utils&#45;&gt;src_data_cells_results</title><style>.edge>path:hover{stroke-width:8}</style>
<path fill="none" stroke="#000000" d="M625.8198,-347.9396C615.2329,-307.5335 629.2897,-295.5826 625.8198,-253.9569"/>
</g>
<!-- src_utils&#45;&gt;src_data_text_process -->
<g id="edge14" class="edge">
<title>src_utils&#45;&gt;src_data_text_process</title><style>.edge>path:hover{stroke-width:8}</style>
<path fill="none" stroke="#000000" d="M462.2758,-809.1397C525.4829,-786.6693 677.4507,-722.0024 641.8198,-629.8879"/>
<path fill="none" stroke="#000000" d="M641.8198,-629.8879C640.4528,-622.986 568.8227,-585.4512 518.7146,-559.9559"/>
<polygon fill="#f91010" stroke="#000000" points="520.1319,-556.7503 509.6306,-555.3456 516.9638,-562.9924 520.1319,-556.7503"/>
</g>
<!-- src_utils&#45;&gt;src_data_user_filters -->
<g id="edge15" class="edge">
<title>src_utils&#45;&gt;src_data_user_filters</title><style>.edge>path:hover{stroke-width:8}</style>
<path fill="none" stroke="#000000" d="M641.8198,-629.8879C617.4351,-506.7675 659.5204,-468.8426 625.8198,-347.9396"/>
<path fill="none" stroke="#000000" d="M625.8198,-347.9396C619.4751,-323.7244 602.6991,-301.4765 586.7217,-284.7119"/>
<polygon fill="#f91010" stroke="#000000" points="589.0043,-282.0431 579.4773,-277.4077 584.0343,-286.9725 589.0043,-282.0431"/>
</g>
<!-- src_utils&#45;&gt;src_data_metrics -->
<g id="edge13" class="edge">
<title>src_utils&#45;&gt;src_data_metrics</title><style>.edge>path:hover{stroke-width:8}</style>
<path fill="none" stroke="#000000" d="M406.313,-813.8506C355.9778,-805.5968 252.8572,-782.3001 189.8198,-723.8707"/>
<path fill="none" stroke="#000000" d="M189.8198,-723.8707C150.6712,-687.5837 117.9011,-703.6413 88.8198,-658.8793 58.6901,-612.5037 69.8198,-591.2088 69.8198,-535.9052 69.8198,-535.9052 69.8198,-535.9052 69.8198,-347.9396 69.8198,-243.0081 210.9578,-190.4709 284.4552,-170.226"/>
<polygon fill="#f91010" stroke="#000000" points="285.5973,-173.5437 294.3553,-167.5816 283.7908,-166.7808 285.5973,-173.5437"/>
</g>
<!-- src_utils&#45;&gt;src_visualization_helpers -->
<g id="edge17" class="edge">
<title>src_utils&#45;&gt;src_visualization_helpers</title><style>.edge>path:hover{stroke-width:8}</style>
<path fill="none" stroke="#000000" d="M189.8198,-723.8707C167.957,-702.8118 203.8134,-688.4152 210.8198,-658.8793 217.4078,-631.107 222.2566,-599.2451 225.4066,-574.9127"/>
<polygon fill="#f91010" stroke="#000000" points="228.8806,-575.3373 226.6527,-564.9794 221.9351,-574.4659 228.8806,-575.3373"/>
</g>
<!-- src_utils_join_and_count -->
<g id="node18" class="node">
<title>src_utils_join_and_count</title><style>.edge>path:hover{stroke-width:8}</style>
<ellipse fill="#ce3b3b" stroke="#000000" cx="517.8198" cy="-441.9224" rx="57.9655" ry="28.9828"/>
<text text-anchor="middle" x="517.8198" y="-450.4224" font-family="Helvetica,sans-Serif" font-size="10.00" fill="#ffffff">src.</text>
<text text-anchor="middle" x="517.8198" y="-439.4224" font-family="Helvetica,sans-Serif" font-size="10.00" fill="#ffffff">utils.</text>
<text text-anchor="middle" x="517.8198" y="-428.4224" font-family="Helvetica,sans-Serif" font-size="10.00" fill="#ffffff">join_and_count</text>
</g>
<!-- src_utils_join_and_count&#45;&gt;src_data_cells_results -->
<g id="edge19" class="edge">
<title>src_utils_join_and_count&#45;&gt;src_data_cells_results</title><style>.edge>path:hover{stroke-width:8}</style>
<path fill="none" stroke="#000000" d="M477.8198,-347.9396C470.9993,-306.7301 453.8951,-288.1965 477.8198,-253.9569"/>
</g>
<!-- src_utils_join_and_count&#45;&gt;src_utils_places_to_cells -->
<g id="edge21" class="edge">
<title>src_utils_join_and_count&#45;&gt;src_utils_places_to_cells</title><style>.edge>path:hover{stroke-width:8}</style>
<path fill="none" stroke="#000000" d="M501.6581,-413.7973C492.3169,-395.666 481.6709,-371.2077 477.8198,-347.9396"/>
<path fill="none" stroke="#000000" d="M477.8198,-347.9396C469.9895,-300.629 405.4528,-297.8263 424.8198,-253.9569"/>
</g>
<!-- src_utils_join_and_count&#45;&gt;src_data_user_filters -->
<g id="edge20" class="edge">
<title>src_utils_join_and_count&#45;&gt;src_data_user_filters</title><style>.edge>path:hover{stroke-width:8}</style>
<path fill="none" stroke="#000000" d="M477.8198,-347.9396C473.479,-321.7128 491.9816,-298.2158 511.568,-281.2762"/>
<polygon fill="#ce3b3b" stroke="#000000" points="513.8534,-283.9286 519.3743,-274.8859 509.4193,-278.512 513.8534,-283.9286"/>
</g>
</g>
</svg>
