<?xml version="1.0" encoding="UTF-8" standalone="no"?>
<!DOCTYPE svg PUBLIC "-//W3C//DTD SVG 1.1//EN"
 "http://www.w3.org/Graphics/SVG/1.1/DTD/svg11.dtd">
<!-- Generated by graphviz version 2.43.0 (0)
 -->
<!-- Title: G Pages: 1 -->
<svg width="845pt" height="1043pt"
 viewBox="0.00 0.00 844.55 1042.81" xmlns="http://www.w3.org/2000/svg" xmlns:xlink="http://www.w3.org/1999/xlink">
<g id="graph0" class="graph" transform="scale(1 1) rotate(0) translate(4 1038.81)">
<title>G</title><style>.edge>path:hover{stroke-width:8}</style>
<polygon fill="white" stroke="transparent" points="-4,4 -4,-1038.81 840.55,-1038.81 840.55,4 -4,4"/>
<!-- src_data -->
<g id="node1" class="node">
<title>src_data</title><style>.edge>path:hover{stroke-width:8}</style>
<ellipse fill="#f31616" stroke="black" cx="30.61" cy="-1005.82" rx="30.72" ry="18"/>
<text text-anchor="middle" x="30.61" y="-1003.32" font-family="Helvetica,sans-Serif" font-size="10.00" fill="#ffffff">src.data</text>
</g>
<!-- src_utils_geometry -->
<g id="node10" class="node">
<title>src_utils_geometry</title><style>.edge>path:hover{stroke-width:8}</style>
<ellipse fill="#a13535" stroke="black" cx="167.61" cy="-817.85" rx="40.11" ry="28.98"/>
<text text-anchor="middle" x="167.61" y="-826.35" font-family="Helvetica,sans-Serif" font-size="10.00" fill="#ffffff">src.</text>
<text text-anchor="middle" x="167.61" y="-815.35" font-family="Helvetica,sans-Serif" font-size="10.00" fill="#ffffff">utils.</text>
<text text-anchor="middle" x="167.61" y="-804.35" font-family="Helvetica,sans-Serif" font-size="10.00" fill="#ffffff">geometry</text>
</g>
<!-- src_data&#45;&gt;src_utils_geometry -->
<g id="edge1" class="edge">
<title>src_data&#45;&gt;src_utils_geometry</title><style>.edge>path:hover{stroke-width:8}</style>
<path fill="none" stroke="black" d="M30.61,-910.84C43.63,-870.87 86.72,-846.51 121.14,-832.98"/>
<polygon fill="#f31616" stroke="black" points="122.44,-836.23 130.58,-829.45 119.99,-829.68 122.44,-836.23"/>
</g>
<!-- src_utils_places_to_cells -->
<g id="node14" class="node">
<title>src_utils_places_to_cells</title><style>.edge>path:hover{stroke-width:8}</style>
<ellipse fill="#a44646" stroke="black" cx="568.61" cy="-159.97" rx="59.29" ry="28.98"/>
<text text-anchor="middle" x="568.61" y="-168.47" font-family="Helvetica,sans-Serif" font-size="10.00" fill="#ffffff">src.</text>
<text text-anchor="middle" x="568.61" y="-157.47" font-family="Helvetica,sans-Serif" font-size="10.00" fill="#ffffff">utils.</text>
<text text-anchor="middle" x="568.61" y="-146.47" font-family="Helvetica,sans-Serif" font-size="10.00" fill="#ffffff">places_to_cells</text>
</g>
<!-- src_data&#45;&gt;src_utils_places_to_cells -->
<g id="edge2" class="edge">
<title>src_data&#45;&gt;src_utils_places_to_cells</title><style>.edge>path:hover{stroke-width:8}</style>
<path fill="none" stroke="black" d="M27.52,-987.71C24.81,-968.86 22.45,-937.89 30.61,-912.84"/>
<path fill="none" stroke="black" d="M30.61,-910.84C56.21,-832.25 30.61,-807.52 30.61,-724.87 30.61,-724.87 30.61,-724.87 30.61,-534.91 30.61,-422.65 68.55,-381.73 161.61,-318.95 295.6,-228.55 399.66,-363.3 519.61,-254.96"/>
<path fill="none" stroke="black" d="M519.61,-252.96C535.56,-237.98 547.37,-216.63 555.4,-198.26"/>
<polygon fill="#f31616" stroke="black" points="558.65,-199.56 559.25,-188.98 552.19,-196.88 558.65,-199.56"/>
</g>
<!-- src_data_access -->
<g id="node2" class="node">
<title>src_data_access</title><style>.edge>path:hover{stroke-width:8}</style>
<ellipse fill="#db2f2f" stroke="black" cx="802.61" cy="-1005.82" rx="33.88" ry="28.98"/>
<text text-anchor="middle" x="802.61" y="-1014.32" font-family="Helvetica,sans-Serif" font-size="10.00" fill="#ffffff">src.</text>
<text text-anchor="middle" x="802.61" y="-1003.32" font-family="Helvetica,sans-Serif" font-size="10.00" fill="#ffffff">data.</text>
<text text-anchor="middle" x="802.61" y="-992.32" font-family="Helvetica,sans-Serif" font-size="10.00" fill="#ffffff">access</text>
</g>
<!-- src_data_cells_results -->
<g id="node3" class="node">
<title>src_data_cells_results</title><style>.edge>path:hover{stroke-width:8}</style>
<ellipse fill="#774040" stroke="black" cx="481.61" cy="-28.99" rx="50.41" ry="28.98"/>
<text text-anchor="middle" x="481.61" y="-37.49" font-family="Helvetica,sans-Serif" font-size="10.00" fill="#ffffff">src.</text>
<text text-anchor="middle" x="481.61" y="-26.49" font-family="Helvetica,sans-Serif" font-size="10.00" fill="#ffffff">data.</text>
<text text-anchor="middle" x="481.61" y="-15.49" font-family="Helvetica,sans-Serif" font-size="10.00" fill="#ffffff">cells_results</text>
</g>
<!-- src_data_access&#45;&gt;src_data_cells_results -->
<g id="edge3" class="edge">
<title>src_data_access&#45;&gt;src_data_cells_results</title><style>.edge>path:hover{stroke-width:8}</style>
<path fill="none" stroke="black" d="M802.61,-534.91C786.01,-497.55 811.61,-482.8 802.61,-442.92"/>
</g>
<!-- src_data_user_agg -->
<g id="node7" class="node">
<title>src_data_user_agg</title><style>.edge>path:hover{stroke-width:8}</style>
<ellipse fill="#a32828" stroke="black" cx="489.61" cy="-347.94" rx="39.7" ry="28.98"/>
<text text-anchor="middle" x="489.61" y="-356.44" font-family="Helvetica,sans-Serif" font-size="10.00" fill="#ffffff">src.</text>
<text text-anchor="middle" x="489.61" y="-345.44" font-family="Helvetica,sans-Serif" font-size="10.00" fill="#ffffff">data.</text>
<text text-anchor="middle" x="489.61" y="-334.44" font-family="Helvetica,sans-Serif" font-size="10.00" fill="#ffffff">user_agg</text>
</g>
<!-- src_data_access&#45;&gt;src_data_user_agg -->
<g id="edge4" class="edge">
<title>src_data_access&#45;&gt;src_data_user_agg</title><style>.edge>path:hover{stroke-width:8}</style>
<path fill="none" stroke="black" d="M644.61,-910.84C642.09,-909.6 644.67,-509.51 643.61,-506.91 637.11,-490.98 563.84,-419.57 520.76,-378.42"/>
<polygon fill="#db2f2f" stroke="black" points="523,-375.72 513.34,-371.36 518.17,-380.79 523,-375.72"/>
</g>
<!-- src_data_user_filters -->
<g id="node8" class="node">
<title>src_data_user_filters</title><style>.edge>path:hover{stroke-width:8}</style>
<ellipse fill="#854747" stroke="black" cx="631.61" cy="-253.96" rx="45.92" ry="28.98"/>
<text text-anchor="middle" x="631.61" y="-262.46" font-family="Helvetica,sans-Serif" font-size="10.00" fill="#ffffff">src.</text>
<text text-anchor="middle" x="631.61" y="-251.46" font-family="Helvetica,sans-Serif" font-size="10.00" fill="#ffffff">data.</text>
<text text-anchor="middle" x="631.61" y="-240.46" font-family="Helvetica,sans-Serif" font-size="10.00" fill="#ffffff">user_filters</text>
</g>
<!-- src_data_access&#45;&gt;src_data_user_filters -->
<g id="edge5" class="edge">
<title>src_data_access&#45;&gt;src_data_user_filters</title><style>.edge>path:hover{stroke-width:8}</style>
<path fill="none" stroke="black" d="M802.61,-976.78C802.61,-940.38 802.61,-874.87 802.61,-818.85 802.61,-818.85 802.61,-818.85 802.61,-722.87 802.61,-640.22 832.54,-613.95 802.61,-536.91"/>
<path fill="none" stroke="black" d="M802.61,-534.91C772.67,-467.55 706.68,-517.56 649.61,-470.91 637.97,-461.4 636.91,-456.57 630.61,-442.92"/>
</g>
<!-- src_data_access&#45;&gt;src_utils_geometry -->
<g id="edge6" class="edge">
<title>src_data_access&#45;&gt;src_utils_geometry</title><style>.edge>path:hover{stroke-width:8}</style>
<path fill="none" stroke="black" d="M770.6,-995.61C740.5,-985.75 695.43,-967.79 663.61,-940.83 652.14,-931.11 658.11,-919.46 644.61,-912.84"/>
<path fill="none" stroke="black" d="M644.61,-910.84C499.1,-839.47 444.3,-879.78 285.61,-846.84 262.3,-842.01 236.55,-835.98 215.08,-830.76"/>
<polygon fill="#db2f2f" stroke="black" points="215.77,-827.32 205.22,-828.35 214.1,-834.12 215.77,-827.32"/>
</g>
<!-- src_data_metrics -->
<g id="node4" class="node">
<title>src_data_metrics</title><style>.edge>path:hover{stroke-width:8}</style>
<ellipse fill="#8b4b4b" stroke="black" cx="205.61" cy="-347.94" rx="34.8" ry="28.98"/>
<text text-anchor="middle" x="205.61" y="-356.44" font-family="Helvetica,sans-Serif" font-size="10.00" fill="#ffffff">src.</text>
<text text-anchor="middle" x="205.61" y="-345.44" font-family="Helvetica,sans-Serif" font-size="10.00" fill="#ffffff">data.</text>
<text text-anchor="middle" x="205.61" y="-334.44" font-family="Helvetica,sans-Serif" font-size="10.00" fill="#ffffff">metrics</text>
</g>
<!-- src_data_process -->
<g id="node5" class="node">
<title>src_data_process</title><style>.edge>path:hover{stroke-width:8}</style>
<ellipse fill="#a44646" stroke="black" cx="490.61" cy="-441.92" rx="36.12" ry="28.98"/>
<text text-anchor="middle" x="490.61" y="-450.42" font-family="Helvetica,sans-Serif" font-size="10.00" fill="#ffffff">src.</text>
<text text-anchor="middle" x="490.61" y="-439.42" font-family="Helvetica,sans-Serif" font-size="10.00" fill="#ffffff">data.</text>
<text text-anchor="middle" x="490.61" y="-428.42" font-family="Helvetica,sans-Serif" font-size="10.00" fill="#ffffff">process</text>
</g>
<!-- src_data_process&#45;&gt;src_data_user_agg -->
<g id="edge7" class="edge">
<title>src_data_process&#45;&gt;src_data_user_agg</title><style>.edge>path:hover{stroke-width:8}</style>
<path fill="none" stroke="black" d="M490.31,-412.82C490.22,-404.79 490.12,-395.88 490.03,-387.34"/>
<polygon fill="#a44646" stroke="black" points="493.53,-387.14 489.92,-377.18 486.53,-387.22 493.53,-387.14"/>
</g>
<!-- src_data_text_process -->
<g id="node6" class="node">
<title>src_data_text_process</title><style>.edge>path:hover{stroke-width:8}</style>
<ellipse fill="#a44646" stroke="black" cx="549.61" cy="-535.91" rx="51.74" ry="28.98"/>
<text text-anchor="middle" x="549.61" y="-544.41" font-family="Helvetica,sans-Serif" font-size="10.00" fill="#ffffff">src.</text>
<text text-anchor="middle" x="549.61" y="-533.41" font-family="Helvetica,sans-Serif" font-size="10.00" fill="#ffffff">data.</text>
<text text-anchor="middle" x="549.61" y="-522.41" font-family="Helvetica,sans-Serif" font-size="10.00" fill="#ffffff">text_process</text>
</g>
<!-- src_data_text_process&#45;&gt;src_data_process -->
<g id="edge8" class="edge">
<title>src_data_text_process&#45;&gt;src_data_process</title><style>.edge>path:hover{stroke-width:8}</style>
<path fill="none" stroke="black" d="M532.55,-508.3C526.22,-498.43 518.95,-487.11 512.27,-476.69"/>
<polygon fill="#a44646" stroke="black" points="515.17,-474.73 506.83,-468.2 509.28,-478.51 515.17,-474.73"/>
</g>
<!-- src_data_user_agg&#45;&gt;src_data_cells_results -->
<g id="edge9" class="edge">
<title>src_data_user_agg&#45;&gt;src_data_cells_results</title><style>.edge>path:hover{stroke-width:8}</style>
<path fill="none" stroke="black" d="M491.76,-318.6C495.63,-261.12 501.64,-133.03 481.61,-94.98"/>
<path fill="none" stroke="black" d="M481.61,-93.98C477.41,-86.18 475.83,-77.02 475.65,-68.11"/>
<polygon fill="#a32828" stroke="black" points="479.15,-67.98 475.99,-57.87 472.16,-67.75 479.15,-67.98"/>
</g>
<!-- src_data_user_agg&#45;&gt;src_data_user_filters -->
<g id="edge10" class="edge">
<title>src_data_user_agg&#45;&gt;src_data_user_filters</title><style>.edge>path:hover{stroke-width:8}</style>
<path fill="none" stroke="black" d="M518.69,-328.1C539.7,-314.49 568.34,-295.94 591.52,-280.93"/>
<polygon fill="#a32828" stroke="black" points="593.61,-283.74 600.1,-275.37 589.81,-277.86 593.61,-283.74"/>
</g>
<!-- src_data_user_agg&#45;&gt;src_utils_places_to_cells -->
<g id="edge11" class="edge">
<title>src_data_user_agg&#45;&gt;src_utils_places_to_cells</title><style>.edge>path:hover{stroke-width:8}</style>
<path fill="none" stroke="black" d="M491.51,-318.84C494.41,-298.25 501.66,-271.17 519.61,-254.96"/>
</g>
<!-- src_utils -->
<g id="node9" class="node">
<title>src_utils</title><style>.edge>path:hover{stroke-width:8}</style>
<ellipse fill="#f91010" stroke="black" cx="406.61" cy="-817.85" rx="30.04" ry="18"/>
<text text-anchor="middle" x="406.61" y="-815.35" font-family="Helvetica,sans-Serif" font-size="10.00" fill="#ffffff">src.utils</text>
</g>
<!-- src_utils&#45;&gt;src_data_cells_results -->
<g id="edge12" class="edge">
<title>src_utils&#45;&gt;src_data_cells_results</title><style>.edge>path:hover{stroke-width:8}</style>
<path fill="none" stroke="black" d="M629.61,-628.89C622.72,-588.59 637.23,-577.07 629.61,-536.91"/>
<path fill="none" stroke="black" d="M629.61,-534.91C603.56,-397.6 507.76,-346.58 576.61,-224.97 603.35,-177.74 701.05,-211.25 680.61,-160.97"/>
<path fill="none" stroke="black" d="M680.61,-158.97C644.16,-73.52 525.59,-176.82 481.61,-94.98"/>
</g>
<!-- src_utils&#45;&gt;src_data_metrics -->
<g id="edge13" class="edge">
<title>src_utils&#45;&gt;src_data_metrics</title><style>.edge>path:hover{stroke-width:8}</style>
<path fill="none" stroke="black" d="M388.16,-803.42C341.89,-769.03 224.61,-677.3 224.61,-630.89 224.61,-630.89 224.61,-630.89 224.61,-534.91 224.61,-483.44 217.32,-424.37 211.77,-386.87"/>
<polygon fill="#f91010" stroke="black" points="215.22,-386.25 210.26,-376.89 208.3,-387.3 215.22,-386.25"/>
</g>
<!-- src_utils&#45;&gt;src_data_text_process -->
<g id="edge14" class="edge">
<title>src_utils&#45;&gt;src_data_text_process</title><style>.edge>path:hover{stroke-width:8}</style>
<path fill="none" stroke="black" d="M436.85,-816.74C482.02,-814.81 566.54,-804.06 610.61,-752.86 646.4,-711.28 640.57,-684.65 629.61,-630.89"/>
<path fill="none" stroke="black" d="M629.61,-628.89C625.27,-603.52 607,-581.49 589.01,-565.36"/>
<polygon fill="#f91010" stroke="black" points="591.23,-562.65 581.36,-558.81 586.68,-567.97 591.23,-562.65"/>
</g>
<!-- src_utils&#45;&gt;src_data_user_filters -->
<g id="edge15" class="edge">
<title>src_utils&#45;&gt;src_data_user_filters</title><style>.edge>path:hover{stroke-width:8}</style>
<path fill="none" stroke="black" d="M629.61,-534.91C621.99,-494.74 645.36,-481.05 630.61,-442.92"/>
<path fill="none" stroke="black" d="M630.61,-440.92C611.93,-392.62 617.05,-331.83 623.48,-293.17"/>
<polygon fill="#f91010" stroke="black" points="627.01,-293.34 625.31,-282.88 620.11,-292.11 627.01,-293.34"/>
</g>
<!-- src_visualization_grid_viz -->
<g id="node17" class="node">
<title>src_visualization_grid_viz</title><style>.edge>path:hover{stroke-width:8}</style>
<ellipse fill="#a83838" stroke="black" cx="304.61" cy="-629.89" rx="52.15" ry="28.98"/>
<text text-anchor="middle" x="304.61" y="-638.39" font-family="Helvetica,sans-Serif" font-size="10.00" fill="#ffffff">src.</text>
<text text-anchor="middle" x="304.61" y="-627.39" font-family="Helvetica,sans-Serif" font-size="10.00" fill="#ffffff">visualization.</text>
<text text-anchor="middle" x="304.61" y="-616.39" font-family="Helvetica,sans-Serif" font-size="10.00" fill="#ffffff">grid_viz</text>
</g>
<!-- src_utils&#45;&gt;src_visualization_grid_viz -->
<g id="edge16" class="edge">
<title>src_utils&#45;&gt;src_visualization_grid_viz</title><style>.edge>path:hover{stroke-width:8}</style>
<path fill="none" stroke="black" d="M393.21,-801.53C379,-784.25 357.29,-754.64 347.61,-724.87"/>
</g>
<!-- src_visualization_helpers -->
<g id="node18" class="node">
<title>src_visualization_helpers</title><style>.edge>path:hover{stroke-width:8}</style>
<ellipse fill="#a13535" stroke="black" cx="427.61" cy="-535.91" rx="52.15" ry="28.98"/>
<text text-anchor="middle" x="427.61" y="-544.41" font-family="Helvetica,sans-Serif" font-size="10.00" fill="#ffffff">src.</text>
<text text-anchor="middle" x="427.61" y="-533.41" font-family="Helvetica,sans-Serif" font-size="10.00" fill="#ffffff">visualization.</text>
<text text-anchor="middle" x="427.61" y="-522.41" font-family="Helvetica,sans-Serif" font-size="10.00" fill="#ffffff">helpers</text>
</g>
<!-- src_utils&#45;&gt;src_visualization_helpers -->
<g id="edge17" class="edge">
<title>src_utils&#45;&gt;src_visualization_helpers</title><style>.edge>path:hover{stroke-width:8}</style>
<path fill="none" stroke="black" d="M404.58,-799.7C402.85,-781.06 401.38,-750.53 406.61,-724.87"/>
</g>
<!-- src_utils_geometry&#45;&gt;src_data_metrics -->
<g id="edge18" class="edge">
<title>src_utils_geometry&#45;&gt;src_data_metrics</title><style>.edge>path:hover{stroke-width:8}</style>
<path fill="none" stroke="black" d="M133.37,-802.45C104.13,-787.59 67.02,-761.44 68.61,-724.87"/>
<path fill="none" stroke="black" d="M68.61,-722.87C72.79,-626.61 53.25,-596.93 87.61,-506.91 107,-456.12 147.74,-407.56 175.88,-378"/>
<polygon fill="#a13535" stroke="black" points="178.66,-380.16 183.1,-370.54 173.63,-375.29 178.66,-380.16"/>
</g>
<!-- src_utils_geometry&#45;&gt;src_visualization_grid_viz -->
<g id="edge19" class="edge">
<title>src_utils_geometry&#45;&gt;src_visualization_grid_viz</title><style>.edge>path:hover{stroke-width:8}</style>
<path fill="none" stroke="black" d="M68.61,-722.87C70.25,-685.13 175.98,-656.62 245.35,-641.95"/>
<polygon fill="#a13535" stroke="black" points="246.22,-645.34 255.3,-639.88 244.8,-638.49 246.22,-645.34"/>
</g>
<!-- src_utils_join_and_count -->
<g id="node11" class="node">
<title>src_utils_join_and_count</title><style>.edge>path:hover{stroke-width:8}</style>
<ellipse fill="#c24747" stroke="black" cx="716.61" cy="-441.92" rx="57.97" ry="28.98"/>
<text text-anchor="middle" x="716.61" y="-450.42" font-family="Helvetica,sans-Serif" font-size="10.00" fill="#ffffff">src.</text>
<text text-anchor="middle" x="716.61" y="-439.42" font-family="Helvetica,sans-Serif" font-size="10.00" fill="#ffffff">utils.</text>
<text text-anchor="middle" x="716.61" y="-428.42" font-family="Helvetica,sans-Serif" font-size="10.00" fill="#ffffff">join_and_count</text>
</g>
<!-- src_utils_join_and_count&#45;&gt;src_data_cells_results -->
<g id="edge20" class="edge">
<title>src_utils_join_and_count&#45;&gt;src_data_cells_results</title><style>.edge>path:hover{stroke-width:8}</style>
<path fill="none" stroke="black" d="M668.61,-346.94C658.3,-304.1 707.17,-298.99 705.61,-254.96"/>
<path fill="none" stroke="black" d="M705.61,-252.96C704.11,-210.62 696.57,-200.22 680.61,-160.97"/>
</g>
<!-- src_utils_join_and_count&#45;&gt;src_data_user_filters -->
<g id="edge21" class="edge">
<title>src_utils_join_and_count&#45;&gt;src_data_user_filters</title><style>.edge>path:hover{stroke-width:8}</style>
<path fill="none" stroke="black" d="M698.14,-414.15C687.14,-396.51 674.26,-372.41 668.61,-348.94"/>
<path fill="none" stroke="black" d="M668.61,-346.94C664.07,-328.05 656.34,-307.94 649.12,-291.36"/>
<polygon fill="#c24747" stroke="black" points="652.23,-289.74 644.95,-282.04 645.84,-292.6 652.23,-289.74"/>
</g>
<!-- src_utils_make_config -->
<g id="node12" class="node">
<title>src_utils_make_config</title><style>.edge>path:hover{stroke-width:8}</style>
<ellipse fill="#c24747" stroke="black" cx="723.61" cy="-911.84" rx="50.82" ry="28.98"/>
<text text-anchor="middle" x="723.61" y="-920.34" font-family="Helvetica,sans-Serif" font-size="10.00" fill="#ffffff">src.</text>
<text text-anchor="middle" x="723.61" y="-909.34" font-family="Helvetica,sans-Serif" font-size="10.00" fill="#ffffff">utils.</text>
<text text-anchor="middle" x="723.61" y="-898.34" font-family="Helvetica,sans-Serif" font-size="10.00" fill="#ffffff">make_config</text>
</g>
<!-- src_utils_make_config&#45;&gt;src_data_cells_results -->
<g id="edge22" class="edge">
<title>src_utils_make_config&#45;&gt;src_data_cells_results</title><style>.edge>path:hover{stroke-width:8}</style>
<path fill="none" stroke="black" d="M733.64,-883.22C745.78,-847.26 764.61,-782.23 764.61,-724.87 764.61,-724.87 764.61,-724.87 764.61,-628.89 764.61,-573.64 777.37,-561.01 788.61,-506.91 794.53,-478.41 811.17,-470.75 802.61,-442.92"/>
<path fill="none" stroke="black" d="M802.61,-440.92C771.54,-353.03 708.91,-348.12 705.61,-254.96"/>
</g>
<!-- src_utils_make_config&#45;&gt;src_utils_geometry -->
<g id="edge23" class="edge">
<title>src_utils_make_config&#45;&gt;src_utils_geometry</title><style>.edge>path:hover{stroke-width:8}</style>
<path fill="none" stroke="black" d="M685.81,-892.23C677.06,-888.58 667.65,-885.17 658.61,-882.84 497.3,-841.41 449.91,-874.13 285.61,-846.84 262.03,-842.93 236.16,-836.98 214.67,-831.58"/>
<polygon fill="#c24747" stroke="black" points="215.37,-828.14 204.81,-829.06 213.63,-834.92 215.37,-828.14"/>
</g>
<!-- src_utils_my_exceptions -->
<g id="node13" class="node">
<title>src_utils_my_exceptions</title><style>.edge>path:hover{stroke-width:8}</style>
<ellipse fill="#b65353" stroke="black" cx="542.61" cy="-723.87" rx="58.88" ry="28.98"/>
<text text-anchor="middle" x="542.61" y="-732.37" font-family="Helvetica,sans-Serif" font-size="10.00" fill="#ffffff">src.</text>
<text text-anchor="middle" x="542.61" y="-721.37" font-family="Helvetica,sans-Serif" font-size="10.00" fill="#ffffff">utils.</text>
<text text-anchor="middle" x="542.61" y="-710.37" font-family="Helvetica,sans-Serif" font-size="10.00" fill="#ffffff">my_exceptions</text>
</g>
<!-- src_utils_my_exceptions&#45;&gt;src_data_text_process -->
<g id="edge24" class="edge">
<title>src_utils_my_exceptions&#45;&gt;src_data_text_process</title><style>.edge>path:hover{stroke-width:8}</style>
<path fill="none" stroke="black" d="M543.67,-694.63C544.87,-662.72 546.84,-610.63 548.17,-575.11"/>
<polygon fill="#b65353" stroke="black" points="551.67,-575.23 548.55,-565.11 544.68,-574.97 551.67,-575.23"/>
</g>
<!-- src_utils_places_to_cells&#45;&gt;src_data_cells_results -->
<g id="edge25" class="edge">
<title>src_utils_places_to_cells&#45;&gt;src_data_cells_results</title><style>.edge>path:hover{stroke-width:8}</style>
<path fill="none" stroke="black" d="M526.74,-138.93C509.58,-128.4 491.48,-113.73 481.61,-94.98"/>
</g>
<!-- src_utils_scales -->
<g id="node15" class="node">
<title>src_utils_scales</title><style>.edge>path:hover{stroke-width:8}</style>
<ellipse fill="#c24747" stroke="black" cx="326.61" cy="-817.85" rx="31.64" ry="28.98"/>
<text text-anchor="middle" x="326.61" y="-826.35" font-family="Helvetica,sans-Serif" font-size="10.00" fill="#ffffff">src.</text>
<text text-anchor="middle" x="326.61" y="-815.35" font-family="Helvetica,sans-Serif" font-size="10.00" fill="#ffffff">utils.</text>
<text text-anchor="middle" x="326.61" y="-804.35" font-family="Helvetica,sans-Serif" font-size="10.00" fill="#ffffff">scales</text>
</g>
<!-- src_utils_scales&#45;&gt;src_visualization_grid_viz -->
<g id="edge26" class="edge">
<title>src_utils_scales&#45;&gt;src_visualization_grid_viz</title><style>.edge>path:hover{stroke-width:8}</style>
<path fill="none" stroke="black" d="M339.84,-791.14C347.65,-772.51 354.75,-746.84 347.61,-724.87"/>
<path fill="none" stroke="black" d="M347.61,-722.87C341.46,-703.95 332.38,-683.84 324.14,-667.26"/>
<polygon fill="#c24747" stroke="black" points="327.06,-665.28 319.42,-657.94 320.82,-668.44 327.06,-665.28"/>
</g>
<!-- src_utils_scales&#45;&gt;src_visualization_helpers -->
<g id="edge27" class="edge">
<title>src_utils_scales&#45;&gt;src_visualization_helpers</title><style>.edge>path:hover{stroke-width:8}</style>
<path fill="none" stroke="black" d="M351.9,-799.57C372.83,-783.26 400.14,-756.6 406.61,-724.87"/>
<path fill="none" stroke="black" d="M406.61,-722.87C416.91,-672.38 422.51,-613.08 425.28,-575.26"/>
<polygon fill="#c24747" stroke="black" points="428.77,-575.41 425.98,-565.19 421.79,-574.92 428.77,-575.41"/>
</g>
<!-- src_visualization -->
<g id="node16" class="node">
<title>src_visualization</title><style>.edge>path:hover{stroke-width:8}</style>
<ellipse fill="#db2f2f" stroke="black" cx="146.61" cy="-535.91" rx="50.41" ry="21.43"/>
<text text-anchor="middle" x="146.61" y="-538.91" font-family="Helvetica,sans-Serif" font-size="10.00" fill="#ffffff">src.</text>
<text text-anchor="middle" x="146.61" y="-527.91" font-family="Helvetica,sans-Serif" font-size="10.00" fill="#ffffff">visualization</text>
</g>
<!-- src_visualization&#45;&gt;src_data_metrics -->
<g id="edge28" class="edge">
<title>src_visualization&#45;&gt;src_data_metrics</title><style>.edge>path:hover{stroke-width:8}</style>
<path fill="none" stroke="black" d="M151.49,-514.62C157.17,-494.53 168.19,-463.83 186.61,-442.92"/>
<path fill="none" stroke="black" d="M186.61,-440.92C199.47,-426.33 204.47,-405.37 206.14,-387.15"/>
<polygon fill="#db2f2f" stroke="black" points="209.64,-387.28 206.77,-377.08 202.66,-386.84 209.64,-387.28"/>
</g>
<!-- src_visualization&#45;&gt;src_data_user_agg -->
<g id="edge29" class="edge">
<title>src_visualization&#45;&gt;src_data_user_agg</title><style>.edge>path:hover{stroke-width:8}</style>
<path fill="none" stroke="black" d="M186.61,-440.92C251.18,-367.66 372.02,-351.78 439.96,-348.93"/>
<polygon fill="#db2f2f" stroke="black" points="440.12,-352.42 449.99,-348.58 439.88,-345.43 440.12,-352.42"/>
</g>
<!-- src_visualization_grid_viz&#45;&gt;src_visualization_helpers -->
<g id="edge30" class="edge">
<title>src_visualization_grid_viz&#45;&gt;src_visualization_helpers</title><style>.edge>path:hover{stroke-width:8}</style>
<path fill="none" stroke="black" d="M335.01,-606.15C351.28,-593.99 371.48,-578.88 388.85,-565.89"/>
<polygon fill="#a83838" stroke="black" points="391.22,-568.49 397.13,-559.7 387.02,-562.89 391.22,-568.49"/>
</g>
<!-- src_visualization_sim -->
<g id="node19" class="node">
<title>src_visualization_sim</title><style>.edge>path:hover{stroke-width:8}</style>
<ellipse fill="#995252" stroke="black" cx="304.61" cy="-535.91" rx="52.15" ry="28.98"/>
<text text-anchor="middle" x="304.61" y="-544.41" font-family="Helvetica,sans-Serif" font-size="10.00" fill="#ffffff">src.</text>
<text text-anchor="middle" x="304.61" y="-533.41" font-family="Helvetica,sans-Serif" font-size="10.00" fill="#ffffff">visualization.</text>
<text text-anchor="middle" x="304.61" y="-522.41" font-family="Helvetica,sans-Serif" font-size="10.00" fill="#ffffff">sim</text>
</g>
<!-- src_visualization_grid_viz&#45;&gt;src_visualization_sim -->
<g id="edge31" class="edge">
<title>src_visualization_grid_viz&#45;&gt;src_visualization_sim</title><style>.edge>path:hover{stroke-width:8}</style>
<path fill="none" stroke="black" d="M304.61,-600.79C304.61,-592.75 304.61,-583.85 304.61,-575.31"/>
<polygon fill="#a83838" stroke="black" points="308.11,-575.15 304.61,-565.15 301.11,-575.15 308.11,-575.15"/>
</g>
<!-- src_visualization_helpers&#45;&gt;src_data_metrics -->
<g id="edge32" class="edge">
<title>src_visualization_helpers&#45;&gt;src_data_metrics</title><style>.edge>path:hover{stroke-width:8}</style>
<path fill="none" stroke="black" d="M432.13,-506.65C433.97,-487.98 434.16,-463.29 426.61,-442.92"/>
<path fill="none" stroke="black" d="M426.61,-440.92C401.4,-372.87 307.74,-354.86 250.76,-350.28"/>
<polygon fill="#a13535" stroke="black" points="250.79,-346.78 240.57,-349.58 250.3,-353.76 250.79,-346.78"/>
</g>
<!-- src_visualization_helpers&#45;&gt;src_data_user_agg -->
<g id="edge33" class="edge">
<title>src_visualization_helpers&#45;&gt;src_data_user_agg</title><style>.edge>path:hover{stroke-width:8}</style>
<path fill="none" stroke="black" d="M426.61,-440.92C417.73,-416.94 434.79,-393.21 453.39,-375.86"/>
<polygon fill="#a13535" stroke="black" points="456.19,-378.07 461.38,-368.84 451.56,-372.81 456.19,-378.07"/>
</g>
</g>
</svg>
